# xmcd
#
# Track frame offsets:
# 150
# 13710
# 32961
# 43308
# 68278
# 87052
# 121816
# 140135
# 153709
# 183728
# 197686
# 217125
# 229523
# 252511
# 265811
#
# Disc length: 3740 seconds
#
#
# Revision: 0
# Processed by: cddbd v1.5.2PL0 Copyright (c) Steve Scherf et al.
# Submitted via: FreeRIP 2.95 
#
DISCID=db0e9a0f
DTITLE=Living The Blues  Guitar CD 1
DYEAR=1900
DGENRE=Blues
TTITLE0=Elvin Bishop  Devil's Slide
TTITLE1=Robin Trower  Rock Me Baby
TTITLE2=Elmore James  Talk To Me Baby
TTITLE3=Lurrie Bell  Smokin' Dynamite
TTITLE4=Long John Hunter  Lone Start Shoot Out
TTITLE5=Peter Green  A Fool No More
TTITLE6=Michel Hill  Why We Play The Blues
TTITLE7=Muddy Waters  Rollin' And Tumblin'
TTITLE8=Roy Buchanan  Wehn A Guitar Plays The Blues
TTITLE9=Hount Dog Taylor  55TH Street Boogie
TTITLE10=Robben Ford  Chevrolet
TTITLE11=John Lee Hooker  Crawlin' King Snake
TTITLE12=Roy Gaines  It's Midnight Baby
TTITLE13=Howlin' Wolf  Moanin' At Midnight
TTITLE14=Roy Buchanan and Delbert McClinton
EXTD=
EXTT0=
EXTT1=
EXTT2=
EXTT3=
EXTT4=
EXTT5=
EXTT6=
EXTT7=
EXTT8=
EXTT9=
EXTT10=
EXTT11=
EXTT12=
EXTT13=
EXTT14=
PLAYORDER=
